<?xml version="1.0" encoding="utf-8"?>
<!-- Generator: Adobe Illustrator 24.1.2, SVG Export Plug-In . SVG Version: 6.00 Build 0)  -->
<svg version="1.1" id="Layer_1" xmlns="http://www.w3.org/2000/svg" xmlns:xlink="http://www.w3.org/1999/xlink" x="0px" y="0px"
	 viewBox="0 0 13 44" style="enable-background:new 0 0 13 44;" xml:space="preserve">
<style type="text/css">
	.st0{fill:none;}
	.st1{fill-rule:evenodd;clip-rule:evenodd;}
</style>
<g>
	<path class="st0" d="M0,44h13V0H0V44z"/>
	<path class="st1" d="M12,25.9c0,0.6-0.5,1.1-1.1,1.1H2.1C1.5,27,1,26.5,1,25.9V18c0-0.5,0.5-1,1.1-1H11c0.6,0,1.1,0.5,1.1,1.1
		L12,25.9L12,25.9z M6.5,14c1.2,0,2.1,0.9,2.3,2H4.2C4.4,14.9,5.3,14,6.5,14z M10.9,16H9.8c-0.2-1.7-1.6-3-3.3-3s-3.1,1.3-3.3,3H2.1
		C0.9,16,0,16.9,0,18.1V26c0,1.1,0.9,2,2.1,2H11c1.1,0,2.1-0.9,2.1-2.1V18C13,16.9,12.1,16,10.9,16z"/>
</g>
</svg>
