<?xml version="1.0" encoding="utf-8"?>
<!-- Generator: Adobe Illustrator 24.1.2, SVG Export Plug-In . SVG Version: 6.00 Build 0)  -->
<svg version="1.1" id="Layer_1" xmlns="http://www.w3.org/2000/svg" xmlns:xlink="http://www.w3.org/1999/xlink" x="0px" y="0px"
	 viewBox="0 0 23 54" style="enable-background:new 0 0 23 54;" xml:space="preserve">
<style type="text/css">
	.st0{fill:none;}
	.st1{fill:#FFFFFF;}
</style>
<path class="st0" d="M0,0h23v54H0V0z"/>
<path class="st1" d="M22,23.2v-2.2c0-1.4-0.8-2.6-1.9-3.3c0,0,0,0,0,0c-1.3-0.7-2.1-1.8-2.2-3l-0.4-3.8c-0.1-1-0.3-1.2-1.9-1.5
	c0,0-2.4-0.3-4.5-0.3S6.4,9.3,6.4,9.3c-1.6,0.3-1.8,0.5-1.9,1.5l-0.4,3.8c-0.1,1.2-0.9,2.3-2.2,3c0,0,0,0,0,0
	C0.8,18.3,0,19.5,0,20.9v17c0,1.4,0.8,2.7,1.9,3.3c0,0,0,0,0,0c1.3,0.7,2,1.9,2.2,3.1l0.4,3.8c0.1,1,0.3,1.2,1.9,1.5
	c0,0,2.4,0.3,4.5,0.3s4.5-0.3,4.5-0.3c1.6-0.3,1.8-0.5,1.9-1.5l0.4-3.8c0.1-1.2,0.9-2.4,2.2-3.1c0,0,0,0,0,0
	c1.1-0.7,1.9-1.9,1.9-3.3V27h1v-3.8H22z M21,27v11c0,1.2-0.7,2.2-1.8,2.7c-0.3,0.1-0.7,0.2-1.1,0.2H3.9c-0.4,0-0.8-0.1-1.1-0.2
	c-1-0.4-1.8-1.5-1.8-2.7v-17c0-1.1,0.6-2.1,1.5-2.5C2.9,18.2,3.4,18,3.9,18h14.2c0.5,0,0.9,0.1,1.4,0.4c0.9,0.5,1.5,1.4,1.5,2.5v2.2
	L21,27z M16.4,48.4c-0.2,0.1-0.8,0.2-1,0.3c-0.3,0-2.5,0.3-4.4,0.3c-1.9,0-4.1-0.3-4.4-0.3c-0.2-0.1-0.8-0.2-1-0.3
	c0-0.1,0-0.2-0.1-0.4l-0.4-3.8c-0.1-0.9-0.4-1.7-1-2.4h13.8c-0.6,0.7-0.9,1.6-1,2.4L16.4,48C16.4,48.3,16.4,48.4,16.4,48.4z
	 M5.6,10.5c0.2-0.1,0.8-0.2,1-0.3c0.3,0,2.5-0.3,4.4-0.3c1.9,0,4.1,0.3,4.4,0.3c0.2,0.1,0.8,0.2,1,0.3c0,0.1,0,0.2,0.1,0.4l0.4,3.8
	c0.1,0.9,0.4,1.6,1,2.3H4.1c0.5-0.7,0.9-1.5,1-2.3l0.4-3.8C5.5,10.7,5.6,10.6,5.6,10.5z"/>
</svg>
