<?xml version="1.0" encoding="utf-8"?>
<!-- Generator: Adobe Illustrator 24.1.2, SVG Export Plug-In . SVG Version: 6.00 Build 0)  -->
<svg version="1.1" id="Layer_1" xmlns="http://www.w3.org/2000/svg" xmlns:xlink="http://www.w3.org/1999/xlink" x="0px" y="0px"
	 viewBox="0 0 25 54" style="enable-background:new 0 0 25 54;" xml:space="preserve">
<style type="text/css">
	.st0{fill:#FFFFFF;}
	.st1{fill:none;}
</style>
<path class="st0" d="M25,20.1h-1c0-2.4-1.4-4.5-3.4-5.5C19.6,14,19,13,18.9,12l-0.4-3.8c-0.1-1-0.3-1.2-1.9-1.5c0,0-2.4-0.3-4.5-0.3
	S7.4,6.7,7.4,6.7C5.8,7,5.7,7.2,5.5,8.2L5.1,12c-0.1,1-0.7,2-1.7,2.6c-2,1-3.4,3.1-3.4,5.5v15.9c0,2.4,1.4,4.5,3.3,5.5
	c1.1,0.7,1.6,1.8,1.7,2.8l0.4,3.8c0.1,1,0.3,1.2,1.9,1.5c0,0,2.4,0.3,4.5,0.3s4.5-0.3,4.5-0.3c1.6-0.3,1.8-0.5,1.9-1.5l0.4-3.8
	c0.1-1,0.7-2.1,1.7-2.8c2-1,3.4-3.1,3.4-5.5V25.3h1L25,20.1z M23,36.1c0,2.8-2.3,5.2-5.2,5.2H6.2c-2.8,0-5.2-2.3-5.2-5.2V20.2
	C1,17.3,3.3,15,6.2,15h11.7c2.8,0,5.2,2.3,5.2,5.2v5.2V36.1z"/>
<path class="st1" d="M0,0h25v54H0V0z"/>
</svg>
