<?xml version="1.0" encoding="utf-8"?>
<!-- Generator: Adobe Illustrator 24.1.2, SVG Export Plug-In . SVG Version: 6.00 Build 0)  -->
<svg version="1.1" id="Layer_1" xmlns="http://www.w3.org/2000/svg" xmlns:xlink="http://www.w3.org/1999/xlink" x="0px" y="0px"
	 viewBox="0 0 25 54" style="enable-background:new 0 0 25 54;" xml:space="preserve">
<style type="text/css">
	.st0{fill:none;}
</style>
<path class="st0" d="M0,0h25v54H0V0z"/>
<path d="M11.8,48.1l0,0.4c0,0.4-0.2,0.9-0.6,1.2L10.9,50c-0.6,0-1.1,0-1.5,0c0.1-0.4,0.3-0.8,0.5-1l1.3-1.1
	C11.5,47.6,11.8,47.7,11.8,48.1z M10,48.2l1.3-1.1c0.3-0.3,0.5-0.8,0.5-1.2l0-0.4c0-0.4-0.3-0.5-0.6-0.2l-1.3,1.1
	c-0.3,0.3-0.5,0.8-0.5,1.2l0,0.4C9.4,48.4,9.7,48.5,10,48.2z M11.8,42.9H11l-1.1,0.9C9.6,44,9.4,44.6,9.4,45l0,0.4
	c0,0.4,0.2,0.5,0.6,0.3l1.3-1.1c0.3-0.3,0.6-0.8,0.6-1.2L11.8,42.9C11.8,42.9,11.8,42.9,11.8,42.9z M10,43.1l0.2-0.2H9.4
	C9.4,43.2,9.7,43.3,10,43.1z M8.9,42.9H8.2l0.2,0.2C8.7,43.3,8.9,43.2,8.9,42.9z M7.1,44.5l1.3,1.1c0.3,0.3,0.6,0.2,0.6-0.2l0-0.4
	c0-0.4-0.2-0.9-0.5-1.2l-1-0.9H6.6c0,0,0,0,0,0l0,0.4C6.5,43.7,6.8,44.3,7.1,44.5z M7.1,45.2c-0.3-0.3-0.6-0.1-0.6,0.3l0,0.4
	c0,0.4,0.2,0.9,0.6,1.2l1.3,1.1c0.3,0.3,0.6,0.1,0.6-0.3l0-0.4c0-0.4-0.2-0.9-0.6-1.2L7.1,45.2z M7.1,47.8c-0.3-0.3-0.6-0.2-0.6,0.2
	l0,0.4c0,0.4,0.2,0.9,0.5,1.2l0.2,0.1c0.6,0.1,1.1,0.1,1.7,0.1c0-0.4-0.2-0.8-0.5-1L7.1,47.8z M5.6,47.8l-0.4,0.3l0,0.1
	c0.1,0.6,0.3,0.9,0.6,1.2c0.2-0.3,0.3-0.6,0.3-0.9l0-0.4C6.1,47.7,5.9,47.6,5.6,47.8z M6.1,45.9l0-0.4c0-0.4-0.3-0.5-0.6-0.2
	l-0.6,0.6l0.2,1.7l0.5-0.4C5.9,46.9,6.1,46.3,6.1,45.9z M6.1,42.9c-0.2,0-0.5,0-0.7-0.1l-0.9,0.8c0.1,0.3,0.2,0.6,0.2,0.9l0.1,0.7
	l0.8-0.6c0.3-0.3,0.6-0.8,0.6-1.2L6.1,42.9C6.1,42.9,6.1,42.9,6.1,42.9z M3.7,42.3c0,0,0,0.1,0,0.1l0,0.2c0.2,0.1,0.4,0.3,0.5,0.4
	c0,0,0,0.1,0.1,0.1c0,0,0,0,0.1,0l0.5-0.4C4.4,42.6,4.1,42.5,3.7,42.3z M2.4,41.5C2.6,41.8,3,42,3.3,42.3c0-0.1,0-0.2,0-0.2
	C2.9,41.9,2.7,41.7,2.4,41.5z M20.7,42.3c0.3-0.2,0.7-0.5,0.9-0.8c-0.3,0.2-0.6,0.4-0.9,0.6C20.7,42.2,20.7,42.2,20.7,42.3z
	 M19.2,42.7l0.5,0.4c0,0,0,0,0.1,0c0,0,0,0,0-0.1c0.1-0.1,0.3-0.3,0.4-0.4l0-0.3c0,0,0,0,0-0.1C19.9,42.5,19.6,42.6,19.2,42.7z
	 M17.9,42.9C17.9,42.9,17.9,42.9,17.9,42.9l0,0.5c0,0.4,0.2,0.9,0.5,1.2l0.8,0.7l0.1-0.7c0-0.3,0.1-0.6,0.2-0.9l-0.9-0.8
	C18.3,42.8,18.1,42.9,17.9,42.9z M17.8,45.5l0,0.4c0,0.4,0.2,0.9,0.6,1.2l0.5,0.4l0.2-1.7l-0.7-0.6C18.1,45,17.8,45.1,17.8,45.5z
	 M17.9,48l0,0.4c0,0.3,0.1,0.6,0.3,0.9c0.3-0.2,0.6-0.6,0.6-1.1l0-0.2l-0.4-0.3C18.2,47.5,17.9,47.6,17.9,48z M16.9,47.8l-1.3,1.1
	c-0.3,0.2-0.5,0.7-0.5,1c0.7,0,1.2-0.1,1.7-0.1l0.1-0.1c0.3-0.3,0.6-0.8,0.6-1.2l0-0.4C17.4,47.7,17.2,47.6,16.9,47.8z M15.6,48.2
	l1.3-1.1c0.3-0.3,0.5-0.8,0.5-1.2l0-0.4c0-0.4-0.3-0.5-0.6-0.2l-1.3,1.1c-0.3,0.3-0.5,0.8-0.5,1.2l0,0.4
	C15,48.4,15.3,48.5,15.6,48.2z M17.4,42.9h-0.8l-1.1,0.9C15.2,44,15,44.6,15,45l0,0.4c0,0.4,0.2,0.5,0.6,0.3l1.3-1.1
	c0.3-0.3,0.6-0.8,0.6-1.2L17.4,42.9C17.4,42.9,17.4,42.9,17.4,42.9z M15.6,43.1l0.2-0.2H15C15.1,43.2,15.3,43.3,15.6,43.1z
	 M14.6,42.9h-0.7l0.2,0.2C14.3,43.3,14.5,43.2,14.6,42.9z M12.7,44.5l1.3,1.1c0.3,0.3,0.6,0.2,0.6-0.2l0-0.4c0-0.4-0.2-0.9-0.5-1.2
	l-1-0.9h-0.8c0,0,0,0,0,0l0,0.4C12.2,43.7,12.4,44.3,12.7,44.5z M12.7,45.2c-0.3-0.3-0.6-0.1-0.6,0.3l0,0.4c0,0.4,0.2,0.9,0.6,1.2
	l1.3,1.1c0.3,0.3,0.6,0.1,0.6-0.3l0-0.4c0-0.4-0.2-0.9-0.6-1.2L12.7,45.2z M12.8,47.8c-0.3-0.3-0.6-0.2-0.6,0.2l0,0.4
	c0,0.4,0.2,0.9,0.5,1.2l0.4,0.3c0.5,0,1,0,1.5,0c0-0.4-0.2-0.8-0.5-1.1L12.8,47.8z M10.9,6.9c-0.6,0-1.1,0-1.5,0
	c0.1,0.4,0.3,0.8,0.5,1l1.3,1.1c0.3,0.3,0.6,0.1,0.6-0.3l0-0.4c0-0.4-0.2-0.9-0.6-1.2L10.9,6.9z M11.2,11.7c0.3,0.3,0.6,0.2,0.6-0.2
	l0-0.4c0-0.4-0.2-0.9-0.5-1.2L10,8.7C9.7,8.4,9.4,8.5,9.4,8.9l0,0.4c0,0.4,0.2,0.9,0.5,1.2L11.2,11.7z M9.9,11.3
	c-0.3-0.3-0.6-0.1-0.6,0.3l0,0.4c0,0.4,0.2,0.9,0.6,1.2L11,14h0.8c0,0,0,0,0-0.1l0-0.4c0-0.4-0.2-0.9-0.6-1.2L9.9,11.3z M10,13.8
	c-0.3-0.3-0.5-0.2-0.6,0.2h0.8L10,13.8z M8.4,13.9L8.2,14h0.8C8.9,13.7,8.7,13.6,8.4,13.9z M8.3,11.3l-1.3,1.1
	c-0.3,0.3-0.5,0.8-0.5,1.2l0,0.4c0,0,0,0,0,0h0.8l1-0.9c0.3-0.3,0.5-0.8,0.5-1.2l0-0.4C8.9,11.1,8.6,11,8.3,11.3z M8.4,8.7L7.1,9.8
	c-0.3,0.3-0.6,0.8-0.6,1.2l0,0.4c0,0.4,0.2,0.5,0.6,0.3l1.3-1.1C8.7,10.3,9,9.8,9,9.4l0-0.4C8.9,8.6,8.7,8.4,8.4,8.7z M7.1,9.1
	L8.4,8c0.3-0.2,0.5-0.6,0.5-1C8.3,7,7.9,7,7.2,7.1L7.1,7.2C6.8,7.5,6.5,8,6.6,8.4l0,0.4C6.6,9.3,6.8,9.4,7.1,9.1z M5.2,8.6l0,0.1
	l0.4,0.3c0.3,0.3,0.6,0.1,0.6-0.3l0-0.4c0-0.3-0.1-0.6-0.3-0.9C5.4,7.7,5.3,8.1,5.2,8.6z M6.1,11.4l0-0.4c0-0.4-0.2-0.9-0.5-1.2
	L5.1,9.4l-0.2,1.7l0.6,0.6C5.8,11.9,6.1,11.8,6.1,11.4z M4.8,11.7l-0.1,0.7c0,0.3-0.1,0.6-0.2,0.9l0.9,0.8c0.2,0,0.4-0.1,0.7-0.1
	c0,0,0,0,0-0.1l0-0.4c0-0.4-0.2-0.9-0.6-1.2L4.8,11.7z M4.8,14.2l-0.5-0.4c0,0,0,0-0.1,0c0,0,0,0.1-0.1,0.1
	c-0.1,0.1-0.3,0.3-0.5,0.4l0,0.2c0,0,0,0.1,0,0.1C4.1,14.5,4.4,14.3,4.8,14.2z M2.3,15.5L2.3,15.5c0.3-0.2,0.6-0.4,0.9-0.6
	c0-0.1,0-0.2,0-0.2C2.9,14.9,2.6,15.2,2.3,15.5z M21.6,15.5c-0.2-0.3-0.6-0.6-1-0.9c0,0.1,0,0.2,0,0.2C21,15,21.4,15.2,21.6,15.5z
	 M19.8,13.9C19.8,13.9,19.8,13.8,19.8,13.9c-0.1,0-0.1,0-0.1,0l-0.5,0.4c0.3,0.1,0.7,0.2,1,0.4c0,0,0,0,0-0.1l0-0.3
	C20.1,14.1,19.9,14,19.8,13.9z M17.8,13.6l0,0.4c0,0,0,0,0,0c0.2,0,0.5,0,0.7,0.1l0.9-0.8c-0.1-0.3-0.2-0.6-0.2-0.9l-0.1-0.7
	l-0.8,0.7C18.1,12.7,17.8,13.2,17.8,13.6z M18.4,11.7l0.7-0.6l-0.2-1.7l-0.5,0.4c-0.3,0.3-0.6,0.8-0.6,1.2l0,0.4
	C17.8,11.8,18.1,11.9,18.4,11.7z M18.5,9.1l0.4-0.3l0-0.2c-0.1-0.5-0.3-0.8-0.6-1.1c-0.2,0.3-0.3,0.6-0.3,0.9l0,0.4
	C17.9,9.3,18.2,9.4,18.5,9.1z M16.7,7.1c-0.5-0.1-1-0.1-1.7-0.1c0,0.4,0.3,0.8,0.5,1l1.3,1.1c0.3,0.3,0.6,0.1,0.6-0.3l0-0.4
	c0-0.4-0.2-0.9-0.6-1.2L16.7,7.1z M16.8,11.7c0.3,0.3,0.6,0.2,0.6-0.2l0-0.4c0-0.4-0.2-0.9-0.5-1.2l-1.3-1.1C15.3,8.4,15,8.5,15,8.9
	l0,0.4c0,0.4,0.2,0.9,0.5,1.2L16.8,11.7z M15.5,11.3C15.2,11,15,11.1,15,11.5l0,0.4c0,0.4,0.2,0.9,0.6,1.2l1.1,0.9h0.8
	c0,0,0,0,0-0.1l0-0.4c0-0.4-0.2-0.9-0.6-1.2L15.5,11.3z M15.6,13.8c-0.3-0.3-0.5-0.2-0.6,0.2h0.8L15.6,13.8z M14,13.9L13.8,14h0.8
	C14.5,13.7,14.3,13.6,14,13.9z M14,11.3l-1.3,1.1c-0.3,0.3-0.5,0.8-0.5,1.2l0,0.4c0,0,0,0,0,0H13l1-0.9c0.3-0.3,0.5-0.8,0.5-1.2
	l0-0.4C14.5,11.1,14.3,11,14,11.3z M14,8.7l-1.3,1.1c-0.3,0.3-0.6,0.8-0.6,1.2l0,0.4c0,0.4,0.2,0.5,0.6,0.3l1.3-1.1
	c0.3-0.3,0.6-0.8,0.6-1.2l0-0.4C14.6,8.6,14.3,8.4,14,8.7z M12.8,9.1L14,8c0.3-0.2,0.5-0.7,0.5-1.1c-0.4,0-0.9,0-1.5,0l-0.4,0.3
	c-0.3,0.3-0.5,0.8-0.5,1.2l0,0.4C12.2,9.3,12.5,9.4,12.8,9.1z M25,25.5h-1v11c0,2-0.9,3.8-2.4,5c-0.3,0.2-0.6,0.4-0.9,0.6
	c-0.2,0.1-0.3,0.2-0.5,0.2c-0.3,0.1-0.7,0.3-1,0.4c-0.2,0.1-0.4,0.1-0.6,0.1c-0.2,0-0.5,0.1-0.7,0.1c-0.1,0-0.2,0-0.3,0h-11H6.4
	c-0.1,0-0.2,0-0.3,0c-0.2,0-0.5,0-0.7-0.1c-0.2,0-0.4-0.1-0.6-0.1c-0.4-0.1-0.7-0.2-1-0.4c-0.2-0.1-0.3-0.2-0.5-0.3
	c-0.3-0.2-0.6-0.4-0.9-0.6c-1.4-1.2-2.4-3-2.4-5V20.4c0-2,0.9-3.8,2.3-5c0.3-0.2,0.6-0.4,0.9-0.6c0.2-0.1,0.3-0.2,0.5-0.3
	c0.3-0.2,0.7-0.3,1-0.4c0.2-0.1,0.4-0.1,0.7-0.1c0.2,0,0.4-0.1,0.7-0.1c0.1,0,0.2,0,0.3,0h0.2h11c0.1,0,0.2,0,0.3,0
	c0.2,0,0.5,0,0.7,0.1c0.2,0,0.4,0.1,0.6,0.1c0.3,0.1,0.7,0.2,1,0.4c0.2,0.1,0.3,0.2,0.5,0.2c0.3,0.2,0.6,0.4,0.9,0.6
	c1.4,1.2,2.4,3,2.4,5v0.2h1V25.5z M23,25.5L23,25.5l0-4.9h0v-0.2c0-1.7-0.8-3.3-2.1-4.2c-0.3-0.3-0.7-0.5-1.1-0.7
	c-0.5-0.2-1-0.4-1.6-0.5c-0.2,0-0.4,0-0.7,0H6.4c-0.2,0-0.5,0-0.7,0c-0.6,0.1-1.1,0.2-1.6,0.5c-0.4,0.2-0.7,0.4-1.1,0.7
	c-1.3,1-2.1,2.5-2.1,4.2v16.1c0,1.7,0.8,3.2,2.1,4.2c0.3,0.3,0.7,0.5,1.1,0.7c0.5,0.2,1,0.4,1.6,0.5c0.2,0,0.5,0.1,0.7,0.1h11.2
	c0.2,0,0.4,0,0.7,0c0.6-0.1,1.1-0.2,1.6-0.5c0.4-0.2,0.8-0.4,1.1-0.7c1.2-1,2.1-2.5,2.1-4.2L23,25.5z"/>
</svg>
